<?xml version="1.0" encoding="UTF-8" standalone="no"?>
<!-- Generator: Adobe Illustrator 22.1.0, SVG Export Plug-In . SVG Version: 6.00 Build 0)  -->

<svg
   version="1.1"
   id="Layer_4_1_"
   x="0px"
   y="0px"
   viewBox="0 0 512 512"
   xml:space="preserve"
   sodipodi:docname="1x-2x_Variable_Holo.svg"
   width="512"
   height="512"
   inkscape:version="1.2.2 (732a01da63, 2022-12-09)"
   xmlns:inkscape="http://www.inkscape.org/namespaces/inkscape"
   xmlns:sodipodi="http://sodipodi.sourceforge.net/DTD/sodipodi-0.dtd"
   xmlns="http://www.w3.org/2000/svg"
   xmlns:svg="http://www.w3.org/2000/svg"><defs
   id="defs17" /><sodipodi:namedview
   id="namedview15"
   pagecolor="#ffffff"
   bordercolor="#666666"
   borderopacity="1.0"
   inkscape:pageshadow="2"
   inkscape:pageopacity="0.0"
   inkscape:pagecheckerboard="0"
   showgrid="false"
   inkscape:zoom="1.5"
   inkscape:cx="-107.66667"
   inkscape:cy="364.33333"
   inkscape:window-width="2560"
   inkscape:window-height="1361"
   inkscape:window-x="-9"
   inkscape:window-y="-9"
   inkscape:window-maximized="1"
   inkscape:current-layer="Layer_4_1_"
   inkscape:showpageshadow="2"
   inkscape:deskcolor="#d1d1d1" />
<style
   type="text/css"
   id="style2">
	.st0{fill:#0AF0F0;}
	.st1{fill:#241C1C;}
	.st2{fill:#F60000;}
</style>




<g
   id="g1086"
   transform="matrix(13.406593,0,0,13.40658,5.2967035,7.978262)"><path
     class="st0"
     d="m 4.7508197,17.2 c 0.8043876,4.617461 3.0164537,8.632645 4.4241321,10.840996 0.9049362,1.405314 2.4131632,2.308731 4.1224872,2.308731 h 5.127971 5.127971 c 1.709324,0 3.217551,-0.803037 4.122487,-2.308731 C 29.083546,25.832645 31.295612,21.817461 32.1,17.2 l -1.608775,0.301139 c 0,2.50949 -0.804388,5.119359 -2.312615,7.227331 -1.809872,2.509489 -4.725777,3.914804 -7.742231,3.914804 H 18.42541 16.414441 c -3.117002,0 -5.932359,-1.505694 -7.7422315,-3.914804 C 7.1639826,22.620498 6.359595,20.010629 6.359595,17.501139 Z"
     id="path4"
     style="stroke-width:1.00464" /><path
     class="st1"
     d="m 36.7,19.9 c -1.8,0 -2.3,0.6 -2.3,0.9 l -1.7,5.7 c -0.5,1.7 -1.5,3.4 -2.7,4.7 l -0.8,0.9 c -0.8,0.8 -1.9,1.3 -3,1.3 h -7.5 -7.6 c -1.1,0 -2.2,-0.5 -3,-1.3 L 7.2,31.2 C 6,29.9 5,28.2 4.5,26.5 L 2.8,20.8 c 0,-0.3 -0.6,-0.9 -2.3,-0.9 0,0.4 0,1.3 0,2.9 0,2.5 3.6,8.6 3.6,8.6 l -1,0.9 v 2.9 c 0,0.4 0.3,0.7 0.7,0.7 h 14.9 14.9 c 0.4,0 0.7,-0.3 0.7,-0.7 v -2.9 l -1,-0.9 c 0,0 3.6,-6.1 3.6,-8.6 -0.2,-1.6 -0.2,-2.4 -0.2,-2.9 z"
     id="path6"
     style="fill:#000000;fill-opacity:1" /><path
     class="st1"
     d="M 34.7,10.3 C 33.4,7.4 31,4.8 31,4.8 v 2 l 1.2,6 c 0,6.8 -2.7,12.3 -4.6,15.2 -0.9,1.4 -2.4,2.3 -4.1,2.3 H 18.4 13.3 C 11.6,30.3 10.1,29.5 9.2,28 7.4,25.1 4.6,19.6 4.6,12.8 l 1.2,-6 v -2 c 0,0 -2.4,2.6 -3.7,5.5 -0.5,1.2 -0.7,2.5 -0.6,3.9 0.1,1 0.2,2.6 0.2,4.8 v 0 c 1.6,0.4 1.9,1.5 1.9,1.8 l 1.7,5.4 c 0.5,1.6 1.3,3 2.4,4.2 l 0.9,0.9 c 0.5,0.6 1.3,0.9 2.1,0.9 h 7.5 7.8 c 0.8,0 1.6,-0.3 2.1,-0.9 L 29,30.4 c 1.1,-1.2 2,-2.7 2.4,-4.2 l 1.7,-5.4 c 0,-0.4 0.3,-1.4 1.9,-1.8 v 0 c 0,-2.1 0.1,-3.8 0.2,-4.8 0.2,-1.4 0,-2.7 -0.5,-3.9 z"
     id="path8"
     style="fill:#000000;fill-opacity:1" /><path
     class="st1"
     d="M 19.7,1.3 H 19.3 C 19.2,1.2 19,1.1 18.9,1.1 h -0.8 c -0.2,0 -0.3,0.1 -0.4,0.2 h -0.4 c 0,0 -10.8,-2.4 -10.8,10.3 v 0 c 2.3,-4.3 6.8,-7.3 12,-7.3 5.2,0 9.8,3 12,7.3 v 0 C 30.5,-1.1 19.7,1.3 19.7,1.3 Z"
     id="path10"
     style="fill:#000000;fill-opacity:1" /><path
     class="st2"
     d="m 18.5,20.7 c -1.6,0 -2.9,-1.3 -2.9,-2.9 0,-1.6 1.3,-2.9 2.9,-2.9 1.6,0 2.9,1.3 2.9,2.9 0,1.7 -1.3,2.9 -2.9,2.9 z m 0,-5.5 c -1.5,0 -2.6,1.2 -2.6,2.6 0,1.5 1.2,2.6 2.6,2.6 1.5,0 2.6,-1.2 2.6,-2.6 0,-1.4 -1.1,-2.6 -2.6,-2.6 z"
     id="path12" /></g>
</svg>
